<svg viewBox="0 0 300 150" xmlns="http://www.w3.org/2000/svg" xmlns:xlink="http://www.w3.org/1999/xlink" xml:space="preserve" xmlns:serif="http://www.serif.com/"  style="fill-rule:evenodd;clip-rule:evenodd;stroke-linejoin:round;stroke-miterlimit:2;">
    <g transform="matrix(1.60624,0,0,1.60624,19.6633,74.9194)">
        <g transform="matrix(1,0,0,1,-12,-12)">
            <clipPath id="_clip1">
                <rect x="0" y="0" width="24" height="24"/>
            </clipPath>
            <g clip-path="url(#_clip1)">
                <path d="M21.312,12.644C20.34,11.455 17.666,8.432 16.715,7.36L14.931,8.378L19.588,13.728C20.211,14.42 20.047,15.432 19.212,15.967C18.439,16.464 13.871,19.343 12.826,20.002C12.752,19.281 12.468,18.611 12,18.054C11.531,17.497 5.885,10.678 4.477,8.876C4.008,8.275 3.902,7.63 4.182,7.059C4.45,6.51 5.024,6.141 5.612,6.141C6.531,6.141 7.02,6.796 7.161,7.356C7.321,7.997 7.126,8.587 6.538,9.041L7.867,10.665L15.663,6.219C17.085,5.168 17.485,3.228 16.593,1.706C15.975,0.653 14.834,-0 13.615,-0C12.427,-0 12.822,-0.016 4.05,4.475C2.816,5.066 2,6.262 2,7.677C2,8.547 2.308,9.433 2.889,10.164C4.316,11.958 10.45,19.349 10.505,19.421C10.876,19.914 10.932,20.54 10.655,21.094C10.378,21.649 9.843,21.98 9.226,21.98C8.307,21.98 7.818,21.325 7.677,20.764C7.521,20.135 7.689,19.556 8.281,19.11L7.004,17.565C6.182,18.23 5.727,19.061 5.627,20.007C5.395,22.212 7.152,24 9.24,24C9.836,24 10.551,23.823 11.081,23.49L20.508,17.544C21.465,16.88 22,15.763 22,14.647C22,13.903 21.76,13.193 21.312,12.644ZM13.02,2.152C13.208,2.065 13.418,2.018 13.629,2.018C14.161,2.018 14.626,2.299 14.872,2.77C15.184,3.366 15.098,4.239 14.324,4.682L9.227,7.57C9.176,6.481 8.648,5.489 7.772,4.838L13.02,2.152ZM16.274,12.207L11.446,15.03L10.801,14.249L15.606,11.441L16.274,12.207ZM9.314,12.445L14.064,9.668L14.732,10.436L9.959,13.227L9.314,12.445ZM17.804,13.964L12.923,16.818L12.278,16.037L17.136,13.197L17.804,13.964Z" style="fill-rule:nonzero;"/>
            </g>
        </g>
    </g>
    <g transform="matrix(0.90901,0,0,0.90901,-86.0797,32.7638)">
        <text x="137.383px" y="59.927px" style="font-family:'ArialMT', 'Arial', sans-serif;font-size:50px;">webdev<tspan x="306.011px 319.903px " y="59.927px 59.927px ">.d</tspan>ocs</text>
    </g>
</svg>
